<svg width="11" height="11" viewBox="0 0 11 11" fill="none" xmlns="http://www.w3.org/2000/svg">
<path fill-rule="evenodd" clip-rule="evenodd" d="M4.34846 0.596076C5.31837 0.40315 6.3237 0.502166 7.23733 0.880605C8.15096 1.25904 8.93186 1.8999 9.48126 2.72215C10.0307 3.5444 10.3239 4.51109 10.3239 5.5C10.3239 6.82608 9.79713 8.09785 8.85945 9.03553C7.92177 9.97322 6.65 10.5 5.32391 10.5C4.33501 10.5 3.36831 10.2068 2.54606 9.65735C1.72382 9.10794 1.08296 8.32705 0.704518 7.41342C0.32608 6.49979 0.227063 5.49445 0.419989 4.52455C0.612915 3.55465 1.08912 2.66373 1.78838 1.96447C2.48764 1.26521 3.37856 0.789002 4.34846 0.596076ZM6.88944 1.72049C6.14192 1.41086 5.31938 1.32985 4.52582 1.4877C3.73226 1.64555 3.00333 2.03517 2.43121 2.60729C1.85908 3.17942 1.46946 3.90835 1.31161 4.7019C1.15376 5.49546 1.23478 6.31801 1.54441 7.06552C1.85404 7.81304 2.37838 8.45195 3.05113 8.90147C3.72387 9.35098 4.51481 9.59091 5.32391 9.59091C6.40889 9.59091 7.44943 9.1599 8.21662 8.39271C8.98382 7.62552 9.41482 6.58498 9.41482 5.5C9.41482 4.6909 9.1749 3.89996 8.72538 3.22721C8.27587 2.55447 7.63695 2.03013 6.88944 1.72049Z" fill="#42FBAD"/>
<path fill-rule="evenodd" clip-rule="evenodd" d="M4.34846 0.596076C5.31837 0.40315 6.3237 0.502166 7.23733 0.880605C8.15096 1.25904 8.93186 1.8999 9.48126 2.72215C10.0307 3.5444 10.3239 4.51109 10.3239 5.5C10.3239 6.82608 9.79713 8.09785 8.85945 9.03553C7.92177 9.97322 6.65 10.5 5.32391 10.5C4.33501 10.5 3.36831 10.2068 2.54606 9.65735C1.72382 9.10794 1.08296 8.32705 0.704518 7.41342C0.32608 6.49979 0.227063 5.49445 0.419989 4.52455C0.612915 3.55465 1.08912 2.66373 1.78838 1.96447C2.48764 1.26521 3.37856 0.789002 4.34846 0.596076ZM6.88944 1.72049C6.14192 1.41086 5.31938 1.32985 4.52582 1.4877C3.73226 1.64555 3.00333 2.03517 2.43121 2.60729C1.85908 3.17942 1.46946 3.90835 1.31161 4.7019C1.15376 5.49546 1.23478 6.31801 1.54441 7.06552C1.85404 7.81304 2.37838 8.45195 3.05113 8.90147C3.72387 9.35098 4.51481 9.59091 5.32391 9.59091C6.40889 9.59091 7.44943 9.1599 8.21662 8.39271C8.98382 7.62552 9.41482 6.58498 9.41482 5.5C9.41482 4.6909 9.1749 3.89996 8.72538 3.22721C8.27587 2.55447 7.63695 2.03013 6.88944 1.72049Z" fill="#6EDBBB"/>
<path fill-rule="evenodd" clip-rule="evenodd" d="M6.07487 1.86361C6.32591 1.86361 6.52941 2.06712 6.52941 2.31815V5.49997C6.52941 5.75101 6.32591 5.95452 6.07487 5.95452H3.80214C3.5511 5.95452 3.3476 5.75101 3.3476 5.49997C3.3476 5.24893 3.5511 5.04543 3.80214 5.04543H5.62032V2.31815C5.62032 2.06712 5.82383 1.86361 6.07487 1.86361Z" fill="#42FBAD"/>
<path fill-rule="evenodd" clip-rule="evenodd" d="M6.07487 1.86361C6.32591 1.86361 6.52941 2.06712 6.52941 2.31815V5.49997C6.52941 5.75101 6.32591 5.95452 6.07487 5.95452H3.80214C3.5511 5.95452 3.3476 5.75101 3.3476 5.49997C3.3476 5.24893 3.5511 5.04543 3.80214 5.04543H5.62032V2.31815C5.62032 2.06712 5.82383 1.86361 6.07487 1.86361Z" fill="#6EDBBB"/>
</svg>
