<svg width="100" height="100" viewBox="0 0 100 100" fill="none" xmlns="http://www.w3.org/2000/svg">
<circle cx="50" cy="50" r="50" fill="#595DED"/>
<path d="M38.4567 41.1705C38.4567 47.1363 34.17 51.8694 29.0022 51.8694C23.8343 51.8694 19.5476 47.1363 19.5476 41.1705C19.5476 35.2047 23.8343 30.4717 29.0022 30.4717C34.17 30.4717 38.4567 35.2047 38.4567 41.1705Z" fill="white" stroke="white"/>
<path d="M80.4523 39.7701C80.4523 45.7359 76.1657 50.469 70.9978 50.469C65.83 50.469 61.5433 45.7359 61.5433 39.7701C61.5433 33.8043 65.83 29.0713 70.9978 29.0713C76.1657 29.0713 80.4523 33.8043 80.4523 39.7701Z" fill="white" stroke="white"/>
<path d="M62.4432 64.9678C58.2436 74.7667 42.8452 74.7667 38.6456 64.9678" stroke="white" stroke-width="10" stroke-linecap="round"/>
</svg>
